<mxfile host="Electron" modified="2024-05-31T07:09:00.358Z" agent="Mozilla/5.0 (Windows NT 10.0; Win64; x64) AppleWebKit/537.36 (KHTML, like Gecko) draw.io/24.4.8 Chrome/124.0.6367.207 Electron/30.0.6 Safari/537.36" etag="FNnJanB2rSA7V32N-zAe" version="24.4.8" type="device">
  <diagram name="Page-1" id="bJofen_G9qva6i-q2s90">
    <mxGraphModel dx="1687" dy="222" grid="1" gridSize="10" guides="1" tooltips="1" connect="1" arrows="1" fold="1" page="1" pageScale="1" pageWidth="1354" pageHeight="762" math="0" shadow="0">
      <root>
        <mxCell id="0" />
        <mxCell id="1" parent="0" />
        <mxCell id="hnhz0wYWwc3eMqcvUc0_-1" value="" style="rounded=1;whiteSpace=wrap;html=1;fillColor=none;dashed=1;strokeWidth=4;strokeColor=#8C4FFF;arcSize=2;" vertex="1" parent="1">
          <mxGeometry x="277" y="1001" width="800" height="360" as="geometry" />
        </mxCell>
        <mxCell id="hnhz0wYWwc3eMqcvUc0_-3" value="Stats are independant, &lt;br&gt;so it uses distinct backup strategy" style="text;html=1;align=left;verticalAlign=middle;resizable=0;points=[];autosize=1;strokeColor=none;fillColor=none;fontSize=14;" vertex="1" parent="1">
          <mxGeometry x="276" y="946" width="230" height="50" as="geometry" />
        </mxCell>
        <mxCell id="hnhz0wYWwc3eMqcvUc0_-4" style="edgeStyle=orthogonalEdgeStyle;rounded=0;orthogonalLoop=1;jettySize=auto;html=1;exitX=1;exitY=0.25;exitDx=0;exitDy=0;entryX=0;entryY=0.25;entryDx=0;entryDy=0;shadow=1;textShadow=1;fontStyle=1" edge="1" parent="1">
          <mxGeometry relative="1" as="geometry">
            <mxPoint x="515" y="1081" as="sourcePoint" />
            <mxPoint x="841" y="1081" as="targetPoint" />
          </mxGeometry>
        </mxCell>
        <mxCell id="hnhz0wYWwc3eMqcvUc0_-5" value="&lt;b&gt;/host/status&lt;/b&gt;" style="edgeLabel;html=1;align=center;verticalAlign=middle;resizable=0;points=[];textShadow=0;" vertex="1" connectable="0" parent="hnhz0wYWwc3eMqcvUc0_-4">
          <mxGeometry x="-0.0653" y="2" relative="1" as="geometry">
            <mxPoint as="offset" />
          </mxGeometry>
        </mxCell>
        <mxCell id="hnhz0wYWwc3eMqcvUc0_-6" style="edgeStyle=orthogonalEdgeStyle;rounded=0;orthogonalLoop=1;jettySize=auto;html=1;exitX=1;exitY=0.75;exitDx=0;exitDy=0;entryX=0;entryY=0.75;entryDx=0;entryDy=0;shadow=1;textShadow=1;fontStyle=1" edge="1" parent="1">
          <mxGeometry relative="1" as="geometry">
            <mxPoint x="515" y="1150.9999999999995" as="sourcePoint" />
            <mxPoint x="841" y="1150.9999999999995" as="targetPoint" />
          </mxGeometry>
        </mxCell>
        <mxCell id="hnhz0wYWwc3eMqcvUc0_-7" value="&lt;b&gt;/instance/status&lt;/b&gt;" style="edgeLabel;html=1;align=center;verticalAlign=middle;resizable=0;points=[];textShadow=0;" vertex="1" connectable="0" parent="hnhz0wYWwc3eMqcvUc0_-6">
          <mxGeometry x="-0.0819" y="-1" relative="1" as="geometry">
            <mxPoint x="12" as="offset" />
          </mxGeometry>
        </mxCell>
        <mxCell id="hnhz0wYWwc3eMqcvUc0_-8" value="B2 Host" style="whiteSpace=wrap;html=1;" vertex="1" parent="1">
          <mxGeometry x="395" y="1061" width="120" height="200" as="geometry" />
        </mxCell>
        <mxCell id="hnhz0wYWwc3eMqcvUc0_-9" value="Stats&lt;br&gt;Host" style="whiteSpace=wrap;html=1;" vertex="1" parent="1">
          <mxGeometry x="841" y="1061" width="120" height="200" as="geometry" />
        </mxCell>
        <mxCell id="hnhz0wYWwc3eMqcvUc0_-10" value="&lt;font color=&quot;#8c4fff&quot; style=&quot;font-size: 18px;&quot;&gt;Private&lt;/font&gt;" style="text;html=1;align=center;verticalAlign=middle;resizable=0;points=[];autosize=1;strokeColor=none;fillColor=none;textShadow=0;" vertex="1" parent="1">
          <mxGeometry x="279" y="1319" width="80" height="40" as="geometry" />
        </mxCell>
        <mxCell id="hnhz0wYWwc3eMqcvUc0_-11" style="edgeStyle=orthogonalEdgeStyle;rounded=0;orthogonalLoop=1;jettySize=auto;html=1;exitX=1;exitY=0.75;exitDx=0;exitDy=0;entryX=0;entryY=0.75;entryDx=0;entryDy=0;shadow=1;textShadow=1;fontStyle=1;endArrow=classic;endFill=1;startArrow=none;startFill=0;" edge="1" parent="1">
          <mxGeometry relative="1" as="geometry">
            <mxPoint x="515" y="1230.9999999999995" as="sourcePoint" />
            <mxPoint x="841" y="1230.9999999999995" as="targetPoint" />
          </mxGeometry>
        </mxCell>
        <mxCell id="hnhz0wYWwc3eMqcvUc0_-12" value="&lt;b&gt;/instance/logs&lt;/b&gt;" style="edgeLabel;html=1;align=center;verticalAlign=middle;resizable=0;points=[];textShadow=0;" vertex="1" connectable="0" parent="hnhz0wYWwc3eMqcvUc0_-11">
          <mxGeometry x="-0.0819" y="-1" relative="1" as="geometry">
            <mxPoint x="8" y="-1" as="offset" />
          </mxGeometry>
        </mxCell>
        <mxCell id="hnhz0wYWwc3eMqcvUc0_-13" value="&lt;font style=&quot;font-size: 10px;&quot;&gt;{ host_ip_address }&lt;/font&gt;" style="text;html=1;align=left;verticalAlign=middle;resizable=0;points=[];autosize=1;strokeColor=none;fillColor=none;fontSize=10;" vertex="1" parent="1">
          <mxGeometry x="635" y="1106" width="110" height="30" as="geometry" />
        </mxCell>
        <mxCell id="hnhz0wYWwc3eMqcvUc0_-14" value="&lt;font style=&quot;font-size: 10px;&quot;&gt;Give some informations about &lt;br&gt;the host&lt;/font&gt;" style="text;html=1;align=left;verticalAlign=middle;resizable=0;points=[];autosize=1;strokeColor=none;fillColor=none;fontSize=10;" vertex="1" parent="1">
          <mxGeometry x="635" y="1080" width="160" height="40" as="geometry" />
        </mxCell>
        <mxCell id="hnhz0wYWwc3eMqcvUc0_-15" value="&lt;font style=&quot;font-size: 10px;&quot;&gt;{ instance }&lt;/font&gt;" style="text;html=1;align=left;verticalAlign=middle;resizable=0;points=[];autosize=1;strokeColor=none;fillColor=none;fontSize=10;" vertex="1" parent="1">
          <mxGeometry x="633" y="1178" width="70" height="30" as="geometry" />
        </mxCell>
        <mxCell id="hnhz0wYWwc3eMqcvUc0_-16" value="&lt;font style=&quot;font-size: 10px;&quot;&gt;Give some informations about &lt;br&gt;the instance container&lt;/font&gt;" style="text;html=1;align=left;verticalAlign=middle;resizable=0;points=[];autosize=1;strokeColor=none;fillColor=none;fontSize=10;" vertex="1" parent="1">
          <mxGeometry x="633" y="1152" width="160" height="40" as="geometry" />
        </mxCell>
        <mxCell id="hnhz0wYWwc3eMqcvUc0_-17" value="Transfert logs" style="text;html=1;align=left;verticalAlign=middle;resizable=0;points=[];autosize=1;strokeColor=none;fillColor=none;fontSize=10;" vertex="1" parent="1">
          <mxGeometry x="635" y="1234" width="80" height="30" as="geometry" />
        </mxCell>
      </root>
    </mxGraphModel>
  </diagram>
</mxfile>
